<?xml version="1.0" encoding="utf-8"?>
<!-- Generator: Adobe Illustrator 19.0.0, SVG Export Plug-In . SVG Version: 6.00 Build 0)  -->
<svg version="1.1" id="Layer_1" xmlns="http://www.w3.org/2000/svg" xmlns:xlink="http://www.w3.org/1999/xlink" x="0px" y="0px"
	 viewBox="0 0 513.133 226.371" style="enable-background:new 0 0 513.133 226.371;" xml:space="preserve">
<style type="text/css">
	.st0{fill:#FFFFFF;}
	.st1{fill:#D02F22;}
</style>
<path id="XMLID_14_" class="st0" d="M503.74,132.728c-6.266,14.192-13.845,25.321-22.735,33.383
	c-8.895,8.068-17.362,12.098-25.403,12.098c-9.128,0-16.088-3.058-20.878-9.188c-4.796-6.124-7.193-14.618-7.193-25.475
	c0-19.387,5.258-36.876,15.777-52.463c10.513-15.587,21.88-23.38,34.099-23.38c3.713,0,5.569,1.241,5.569,3.722l-0.927,4.887
	c-8.509,0-16.471,7.908-23.897,23.728c-7.422,15.822-11.135,32.496-11.135,50.021c0,13.03,3.248,19.541,9.743,19.541
	c4.639,0,9.662-3.45,15.08-10.35c5.409-6.9,10.09-16.477,14.032-28.732c3.945-12.252,5.919-24.971,5.919-38.156
	c0-8.065-0.736-15.044-2.206-20.939c-1.47-5.892-2.901-9.849-4.292-11.865l-2.086-2.792c2.469-1.862,5.72-2.792,9.743-2.792
	c6.182,0,11.093,3.568,14.73,10.7c3.631,7.135,5.451,15.047,5.451,23.731C513.133,103.763,510.003,118.535,503.74,132.728z
	 M425.213,73.051l-2.086-1.627c6.028-8.379,11.4-18.068,16.121-29.082c4.715-11.011,7.075-20.16,7.075-27.452
	c0-4.805-1.029-7.211-3.088-7.211c-2.21,0-4.6,2.65-7.175,7.953c-2.572,5.309-5.774,14.902-9.599,28.789
	c-3.824,13.885-7.003,25.723-9.535,35.508c-2.535,9.789-6.728,25.976-12.581,48.563c-5.267,17.79-7.899,30.41-7.899,37.854
	c6.185-5.895,13.299-17.138,21.34-33.734l2.321,1.162c-0.465,1.244-1.044,2.87-1.739,4.884c-0.697,2.019-2.203,5.587-4.525,10.7
	c-2.318,5.122-4.679,9.623-7.075,13.495c-2.4,3.882-5.336,7.446-8.817,10.703c-3.477,3.257-6.921,4.887-10.323,4.887
	c-6.65,0-9.973-4.573-9.973-13.728c0-6.357,1.395-15.336,4.193-26.933c2.798-11.597,5.5-23.015,8.101-34.25l-0.697-0.235
	c-2.167,3.568-5.101,8.255-8.814,14.075c-3.713,5.813-10.519,15.394-20.416,28.732c-9.897,13.341-18.868,24.042-26.909,32.104
	c-3.248,0-5.762-0.157-7.537-0.465c-1.781-0.311-3.447-1.241-4.989-2.789c-1.548-1.548-2.318-3.8-2.318-6.749
	c0-6.668,1.12-15.819,3.359-27.452c2.243-11.633,5.454-23.924,9.629-36.876c4.177-12.949,9.937-24.117,17.283-33.501
	c7.344-9.384,15.349-14.075,24.011-14.075c9.279,0,17.845,4.494,25.702,13.483c6.505-23.882,12.889-41.249,19.161-52.107
	c6.269-10.854,13.278-16.284,21.02-16.284c10.516,0,15.774,4.733,15.774,14.192c0,6.671-3.13,16.016-9.396,28.035
	C438.552,55.644,432.017,65.454,425.213,73.051z M378.12,67.703c-5.258,0-10.205,3.139-14.844,9.423
	c-4.642,6.278-8.47,13.921-11.485,22.913c-3.015,8.998-5.644,17.996-7.887,26.987c-2.243,8.998-3.827,16.601-4.754,22.801
	l-1.624,9.538l0.694,0.232c21.959-22.019,41.367-49.707,58.228-83.057C390.568,70.649,384.462,67.703,378.12,67.703z
	 M309.223,132.613l2.321,1.162c-0.465,1.244-1.044,2.87-1.739,4.884c-0.697,2.019-2.203,5.587-4.525,10.7
	c-2.318,5.122-4.679,9.623-7.075,13.495c-2.4,3.882-5.337,7.446-8.817,10.703c-3.48,3.257-6.921,4.887-10.323,4.887
	c-6.65,0-9.973-4.573-9.973-13.728c0-6.049,1.159-14.965,3.477-26.755c2.321-11.784,5.487-23.266,9.511-34.431l-0.694-0.232
	c-2.167,3.568-5.104,8.255-8.817,14.075c-3.71,5.813-10.516,15.394-20.413,28.732c-9.9,13.341-18.871,24.042-26.909,32.104
	c-3.248,0-5.765-0.157-7.54-0.465c-1.781-0.311-3.444-1.241-4.989-2.789c-1.545-1.548-2.318-3.8-2.318-6.749
	c0-6.668,1.12-15.819,3.362-27.452c2.243-11.633,5.451-23.924,9.629-36.876c4.174-12.949,9.937-24.117,17.283-33.501
	c7.344-9.384,15.346-14.075,24.008-14.075c9.743,0,18.636,4.808,26.68,14.425c1.542-3.103,3.248-6.668,5.104-10.703
	c1.078-2.481,2.858-3.722,5.333-3.722c4.177,0,8.119,1.859,11.832,5.584c-17.166,57.389-25.75,92.209-25.75,104.461
	C294.064,160.452,301.182,149.208,309.223,132.613z M288.58,76.54l-1.856-1.627c-1.241-1.241-2.246-2.131-3.018-2.677
	c-0.773-0.54-1.896-1.238-3.362-2.092c-1.473-0.851-3.055-1.473-4.757-1.862c-1.702-0.386-3.477-0.58-5.333-0.58
	c-5.261,0-10.208,3.139-14.847,9.423c-4.639,6.278-8.467,13.921-11.482,22.913c-3.018,8.998-5.647,17.996-7.887,26.987
	c-2.246,8.998-3.83,16.601-4.757,22.801l-1.624,9.538l0.697,0.232C252.465,137.422,271.876,109.737,288.58,76.54z M281.852,34.198
	c-18.557,0-36.577,7.211-54.05,21.639c-17.48,14.422-32.095,32.568-43.845,54.44c-1.856,3.411-3.595,7.057-5.219,10.933
	c-1.624,3.882-3.366,8.533-5.222,13.96c-1.853,5.43-3.287,9.695-4.289,12.795c-1.008,3.106-2.632,8.301-4.872,15.59
	c-2.246,7.292-3.752,12.179-4.525,14.654c-5.104,0-8.624-0.543-10.555-1.627c-1.935-1.084-2.901-2.867-2.901-5.349
	c0-2.327,0.501-6.13,1.509-11.4c1.005-5.273,2.551-12.059,4.639-20.359c2.089-8.295,3.978-15.587,5.684-21.868
	c1.699-6.281,3.942-14.618,6.728-25.01c2.783-10.389,4.639-17.292,5.566-20.706c2.01-7.754,3.015-12.641,3.015-14.657
	c11.289,0.465,16.936,2.87,16.936,7.211c0,3.106-2.01,11.947-6.031,26.523l1.159,0.697c13.921-20.779,30.89-38.539,50.92-53.275
	c20.027-14.736,35.683-22.104,46.975-22.104c5.72,0,9.937,1.434,12.644,4.304c2.704,2.87,4.6,7.561,5.684,14.078l-2.783,2.092
	C294.224,35.053,288.498,34.198,281.852,34.198z M146.495,88.756c-1.159,3.646-2.75,7.793-4.757,12.448
	c-2.01,4.651-3.984,7.99-5.916,10.003c-1.935,2.016-4.485,3.8-7.655,5.352c-3.172,1.551-6.767,2.327-10.788,2.327
	c-5.258,0-12.451-1.781-21.572-5.352c-3.87,11.63-5.801,23.112-5.801,34.431c0,14.274,3.864,21.406,11.6,21.406
	c5.412,0,11.636-2.985,18.675-8.959c7.036-5.967,12.412-13.531,16.124-22.683l2.318,1.162c-2.01,7.603-4.214,13.999-6.61,19.194
	c-2.4,5.201-6.112,9.852-11.135,13.96c-5.029,4.108-10.945,6.164-17.748,6.164c-10.519,0-18.599-3.408-24.241-10.235
	c-5.647-6.825-8.47-16.052-8.47-27.685c0-20.474,6.148-39.203,18.442-56.184c12.297-16.988,24.938-25.478,37.932-25.478
	c2.007,0,3.595,0.507,4.754,1.512c1.159,1.011,2.125,2.831,2.901,5.469h1.856c1.391-6.049,2.898-10.275,4.522-12.68
	c1.624-2.403,3.827-3.607,6.61-3.607c3.402,0,6.65,1.319,9.743,3.957c-1.702,5.116-3.634,11.397-5.798,18.844
	C149.314,79.565,147.654,85.113,146.495,88.756z M131.3,69.33c-6.188,0-12.336,3.722-18.442,11.168
	c-6.112,7.446-11.253,16.831-15.427,28.15c6.496,2.792,11.908,4.187,16.236,4.187c6.499,0,11.446-4.651,14.847-13.957
	c1.545-4.497,3.788-13.879,6.728-28.15C134.316,69.794,133,69.33,131.3,69.33z M80.498,14.425c-8.971,0-15.581,3.918-19.834,11.748
	c-4.256,7.836-8.159,21.286-11.714,40.365c14.847-1.084,22.964-1.627,24.358-1.627c2.934,0,4.407,1.241,4.407,3.722l-0.465,5.352
	c-5.88,0.311-16.164,1.551-30.854,3.722c5.877,14.739,8.817,32.65,8.817,53.743c0,15.668-1.588,30.709-4.757,45.134
	c-3.172,14.425-7.769,26.326-13.803,35.711c-6.031,9.384-12.68,14.078-19.949,14.078c-5.569,0-9.743-2.134-12.529-6.396
	C1.391,215.704,0,210.237,0,203.57c0-17.528,8.968-58.705,26.909-123.537c-1.238,0.154-2.629,0.232-4.174,0.232
	c-5.415,0-8.119-2.56-8.119-7.679c0-1.084,0.075-2.095,0.232-3.024c0.151-0.93,0.383-1.548,0.697-1.859l0.229-0.468
	c1.856,0.157,4.639,0.232,8.352,0.232h6.263l1.624-5.816c5.412-19.384,12.913-34.506,22.502-45.366C64.105,5.43,73.151,0,81.657,0
	c2.164,0,4.06,0.429,5.684,1.28c1.624,0.854,3.015,2.173,4.177,3.954c1.159,1.784,1.932,3.221,2.318,4.304
	c0.386,1.087,0.966,2.638,1.742,4.651l-1.856,2.327C88.617,15.122,84.21,14.425,80.498,14.425z M43.38,88.638
	c-15.774,61.578-23.661,101.439-23.661,119.583c0,3.568,0.848,5.352,2.551,5.352c2.472,0,5.644-4.108,9.511-12.33
	c3.864-8.222,7.461-19.737,10.788-34.549c3.323-14.811,4.986-29.58,4.986-44.319c0-11.944-1.084-23.109-3.245-33.501L43.38,88.638z
	 M80.697,213.787c0.184-0.06,42.194-13.719,106.58-14.099l2.225,0.021c2.291,0.033,4.651,0.069,7.111,0.112
	c15.813,0.03,36.224,0.154,56.879,0.492c-0.857,1.983-1.603,4.051-2.128,6.293c-0.175,0.74-0.326,1.491-0.456,2.252
	c-10.178-0.586-23.245-1.093-44.467-1.512c-49.055-0.969-78.279,2.849-78.279,2.849l0.006,0.009
	c-7.513,0.703-14.887,1.615-21.889,2.807c-6.637,1.023-12.65,2.342-18.011,3.969c-0.118,0.033-0.238,0.063-0.359,0.1l0.027,0.006
	c-5.225,1.603-9.837,3.498-13.845,5.678l-0.003-0.006c-1.295,0.682-3.731,0.706-4.82-0.628c-1.09-1.331,0.583-3.444,0.589-3.453
	C71.826,217.575,75.348,215.806,80.697,213.787z"/>
<path id="XMLID_24_" class="st1" d="M504.613,195.396c-0.524,0.684-1.113,1.026-1.769,1.026c-0.394,0-0.795-0.139-1.205-0.419
	c-0.524-0.357-1.011-0.672-1.464-0.943c-0.453-0.271-0.906-0.499-1.365-0.678c-0.459-0.176-0.949-0.311-1.467-0.407
	c-0.515-0.092-1.097-0.139-1.738-0.139c-1.384,0-2.653,0.314-3.806,0.943c-1.15,0.629-2.142,1.513-2.974,2.653
	c-0.829,1.14-1.473,2.512-1.932,4.111c-0.459,1.596-0.69,3.359-0.69,5.285c0,1.489,0.169,2.826,0.515,4.012
	c0.342,1.19,0.826,2.188,1.455,3.005c0.626,0.817,1.374,1.439,2.253,1.874c0.872,0.435,1.843,0.653,2.906,0.653
	c0.875,0,1.661-0.08,2.361-0.247c0.703-0.16,1.371-0.391,2.012-0.684l0.613-5.541h-2.712c-0.407,0-0.721-0.102-0.94-0.302
	c-0.219-0.203-0.327-0.475-0.327-0.817l0.481-4.376h10.626l-1.661,14.176c-0.817,0.641-1.664,1.183-2.536,1.643
	c-0.875,0.456-1.791,0.835-2.746,1.128c-0.955,0.296-1.96,0.515-3.017,0.653c-1.057,0.139-2.182,0.21-3.378,0.21
	c-1.969,0-3.766-0.385-5.39-1.153c-1.627-0.767-3.017-1.827-4.179-3.177c-1.159-1.35-2.052-2.946-2.687-4.798
	c-0.635-1.846-0.952-3.849-0.952-6.003c0-1.88,0.2-3.667,0.601-5.368c0.404-1.698,0.974-3.27,1.717-4.715
	c0.743-1.442,1.639-2.746,2.681-3.911c1.042-1.162,2.2-2.157,3.476-2.98c1.276-0.823,2.647-1.455,4.12-1.895
	c1.473-0.444,3.017-0.666,4.635-0.666c1.356,0,2.586,0.133,3.686,0.398c1.1,0.262,2.089,0.616,2.965,1.057
	c0.872,0.444,1.652,0.955,2.339,1.538c0.684,0.582,1.288,1.186,1.815,1.806L504.613,195.396z M465.298,221.847
	c-0.555,0-1.014-0.086-1.378-0.259c-0.367-0.169-0.678-0.505-0.94-0.998l-11.131-20.935c-0.028,0.438-0.062,0.857-0.099,1.26
	c-0.037,0.404-0.068,0.783-0.099,1.137l-2.185,19.794h-6.296l3.935-33.924h3.76c0.305,0,0.564,0.012,0.777,0.037
	c0.21,0.022,0.401,0.077,0.567,0.163c0.169,0.086,0.317,0.203,0.45,0.361c0.129,0.154,0.262,0.354,0.394,0.604l11.175,20.956
	c0.028-0.545,0.071-1.066,0.129-1.562c0.055-0.496,0.108-0.962,0.151-1.396l2.145-19.163h6.296l-3.935,33.924H465.298z
	 M425.676,221.847l3.892-33.924h7.171l-3.892,33.924H425.676z M408.141,221.847l1.661-14.438H398.3l-1.664,14.438h-7.171
	l3.935-33.924h7.174l-1.664,14.318h11.504l1.661-14.318h7.171l-3.935,33.924H408.141z M376.74,193.932l-3.239,27.915h-7.082
	l3.193-27.915h-8.136l0.7-6.009h23.397l-0.743,6.009H376.74z M353.134,212.648c-0.733,1.442-1.624,2.755-2.666,3.932
	c-1.042,1.183-2.213,2.188-3.51,3.017c-1.297,0.832-2.706,1.476-4.222,1.935c-1.513,0.456-3.11,0.684-4.789,0.684
	c-2.096,0-3.982-0.391-5.649-1.174c-1.673-0.786-3.088-1.855-4.256-3.214c-1.165-1.359-2.059-2.959-2.678-4.798
	c-0.619-1.837-0.928-3.818-0.928-5.945c0-1.834,0.2-3.59,0.601-5.276c0.401-1.683,0.968-3.245,1.704-4.69
	c0.737-1.442,1.63-2.755,2.678-3.932c1.051-1.18,2.225-2.188,3.522-3.017c1.297-0.829,2.703-1.473,4.219-1.932
	c1.516-0.456,3.122-0.687,4.811-0.687c2.086,0,3.963,0.391,5.63,1.177c1.67,0.783,3.085,1.858,4.244,3.227
	c1.159,1.365,2.046,2.971,2.669,4.817c0.616,1.849,0.928,3.828,0.928,5.936c0,1.834-0.2,3.587-0.601,5.264
	S353.87,211.206,353.134,212.648z M347.67,199.085c-0.314-1.14-0.774-2.117-1.378-2.931c-0.607-0.817-1.344-1.445-2.222-1.886
	c-0.872-0.444-1.865-0.663-2.974-0.663c-1.458,0-2.761,0.32-3.914,0.965c-1.15,0.644-2.133,1.547-2.94,2.712
	c-0.807,1.165-1.43,2.567-1.858,4.204c-0.431,1.636-0.644,3.449-0.644,5.436c0,1.396,0.154,2.66,0.459,3.794
	c0.305,1.134,0.752,2.102,1.344,2.912c0.589,0.807,1.322,1.43,2.197,1.874c0.875,0.441,1.874,0.663,2.995,0.663
	c1.458,0,2.764-0.317,3.926-0.952c1.159-0.638,2.142-1.538,2.952-2.703c0.807-1.165,1.43-2.561,1.868-4.191
	c0.438-1.63,0.656-3.439,0.656-5.424C348.138,201.495,347.981,200.229,347.67,199.085z M318.27,221.847h-17.844l3.935-33.924h7.128
	l-3.236,27.869h10.712L318.27,221.847z M293.298,196.05c-0.234,0.169-0.539,0.256-0.918,0.256c-0.25,0-0.475-0.062-0.678-0.188
	c-0.206-0.123-0.413-0.274-0.623-0.453c-0.213-0.179-0.45-0.373-0.712-0.595c-0.265-0.216-0.576-0.413-0.94-0.592
	c-0.367-0.179-0.798-0.33-1.301-0.453c-0.505-0.126-1.097-0.188-1.784-0.188c-1.341,0-2.589,0.305-3.751,0.909
	c-1.159,0.604-2.163,1.47-3.014,2.595c-0.854,1.125-1.522,2.49-2.003,4.099c-0.481,1.606-0.721,3.402-0.721,5.39
	c0,1.442,0.163,2.73,0.493,3.861c0.327,1.134,0.777,2.093,1.344,2.878c0.57,0.78,1.245,1.381,2.034,1.791
	c0.786,0.413,1.639,0.619,2.558,0.619c0.801,0,1.498-0.068,2.089-0.2c0.589-0.133,1.094-0.299,1.519-0.499
	c0.422-0.203,0.78-0.422,1.069-0.666c0.293-0.24,0.555-0.462,0.789-0.663c0.231-0.2,0.45-0.367,0.656-0.502
	c0.203-0.129,0.422-0.197,0.656-0.197c0.231,0,0.425,0.046,0.579,0.129c0.151,0.086,0.265,0.182,0.339,0.293l2.493,3.19
	c-1.387,1.75-3.029,3.082-4.934,3.991c-1.901,0.909-4.062,1.362-6.481,1.362c-2.012,0-3.794-0.376-5.347-1.128
	c-1.553-0.755-2.86-1.791-3.926-3.11c-1.063-1.316-1.871-2.885-2.416-4.69s-0.82-3.76-0.82-5.855c0-1.942,0.203-3.778,0.613-5.516
	c0.407-1.741,0.983-3.347,1.729-4.82c0.743-1.473,1.633-2.801,2.678-3.982c1.042-1.18,2.197-2.182,3.464-3.005
	c1.27-0.823,2.632-1.455,4.09-1.895c1.458-0.444,2.98-0.666,4.57-0.666c1.196,0,2.284,0.123,3.27,0.364
	c0.983,0.24,1.871,0.573,2.666,0.998c0.795,0.428,1.507,0.937,2.133,1.525s1.174,1.242,1.639,1.954l-2.493,3.076
	C293.736,195.683,293.532,195.877,293.298,196.05z"/>
</svg>
