<svg xmlns="http://www.w3.org/2000/svg" xmlns:xlink="http://www.w3.org/1999/xlink" preserveAspectRatio="xMidYMid" width="17.97" height="17.97" viewBox="0 0 17.97 17.97">
  <defs>
    <style>
      .cls-1 {
        fill: #fff;
        fill-rule: evenodd;
      }
    </style>
  </defs>
  <path d="M17.471,15.090 C18.129,15.748 18.129,16.814 17.471,17.471 C16.814,18.129 15.747,18.129 15.089,17.471 L11.516,13.899 C11.384,13.765 11.297,13.607 11.217,13.447 C10.084,14.171 8.742,14.596 7.298,14.596 C3.267,14.596 0.000,11.329 0.000,7.298 C0.000,3.268 3.267,0.000 7.298,0.000 C11.329,0.000 14.597,3.268 14.597,7.298 C14.597,8.742 14.172,10.084 13.448,11.217 C13.607,11.296 13.765,11.384 13.899,11.516 L17.471,15.090 ZM7.298,2.246 C4.508,2.246 2.246,4.508 2.246,7.298 C2.246,10.089 4.508,12.351 7.298,12.351 C10.089,12.351 12.351,10.089 12.351,7.298 C12.351,4.508 10.089,2.246 7.298,2.246 Z" class="cls-1"/>
</svg>
